# xmcd
# Track frame offsets:
# 150
# 179478
# 193388
# 202317
# 217271
# 229225
# 242561
# 248078
# 251423
# 260770
# 277910
# 287344
# 295093
# 304044
# 307454
# 321809
# 326685
# 341016
# 343007
#
# Disc length: 4714 seconds
# Revision: 0
# Processed by: cddbd v1.5.1PL2 Copyright (c) Steve Scherf et al.
# Submitted via: bergue.cddb.CddbMailer 1
#
DISCID=3c126813
DTITLE=The Carter Family - In The Shadow Of Clinch Mountain, Vol. 12
DYEAR=2000
DGENRE=Country
TTITLE0=Sara and Maybelle Carter Interview, April 24, 1963
TTITLE1=The Ship That Never Returned
TTITLE2=Jesse James
TTITLE3=I Was Born 4000 Years Ago
TTITLE4=I'm Leaving You
TTITLE5=Re-Autoharp/Fingerpicking/Allie Lee Intro
TTITLE6=Her Favorite Guitar Pickers
TTITLE7=The First Grand Old Opry Appearance
TTITLE8=How The Maybelle Style Developed
TTITLE9=Thanks You's From Musicians
TTITLE10=Do You Still Have Your Original Guitar?
TTITLE11=An Autoharp Discussion
TTITLE12=The Wildwood Flower Discussion
TTITLE13=The Floyd Cramer Reference
TTITLE14=The Kids Dig That Style/The College Audience
TTITLE15=How Many Songs Did You Record in Your Career?
TTITLE16=The Early Recording And Radio Background
TTITLE17=Early Record Sales
TTITLE18=Discussion About A.P. and Sara Carter
EXTD=Bear Family CD 15865 LK
EXTT0=
EXTT1=
EXTT2=
EXTT3=
EXTT4=
EXTT5=
EXTT6=
EXTT7=
EXTT8=
EXTT9=
EXTT10=
EXTT11=
EXTT12=
EXTT13=
EXTT14=
EXTT15=
EXTT16=
EXTT17=
EXTT18=
PLAYORDER=
